<?xml version="1.0" encoding="UTF-8" standalone="no"?>
<!DOCTYPE svg PUBLIC "-//W3C//DTD SVG 1.1//EN" "http://www.w3.org/Graphics/SVG/1.1/DTD/svg11.dtd">
<svg width="100%" height="100%" viewBox="0 0 1600 1600" version="1.1" xmlns="http://www.w3.org/2000/svg" xmlns:xlink="http://www.w3.org/1999/xlink" xml:space="preserve" xmlns:serif="http://www.serif.com/" style="fill-rule:evenodd;clip-rule:evenodd;stroke-linejoin:round;stroke-miterlimit:2;">
    <path d="M1600,400C1600,179.234 1420.77,0 1200,0L400,0C179.234,0 0,179.234 0,400L0,1200C0,1420.77 179.234,1600 400,1600L1200,1600C1420.77,1600 1600,1420.77 1600,1200L1600,400Z" style="fill:rgb(249,66,58);"/>
    <g transform="matrix(1,0,0,1,13.2876,-109.029)">
        <g transform="matrix(3.75889,0,0,3.75889,-417.876,-1710.66)">
            <g transform="matrix(100,0,0,100,147.465,636.114)">
                <path d="M0.275,0.012C0.41,0.012 0.507,-0.059 0.507,-0.184C0.507,-0.306 0.418,-0.347 0.3,-0.389C0.234,-0.413 0.179,-0.437 0.179,-0.491C0.179,-0.539 0.217,-0.572 0.282,-0.572C0.323,-0.572 0.351,-0.563 0.369,-0.552C0.365,-0.544 0.362,-0.537 0.362,-0.521C0.362,-0.488 0.388,-0.454 0.434,-0.454C0.472,-0.454 0.501,-0.481 0.501,-0.528C0.501,-0.607 0.406,-0.67 0.283,-0.67C0.15,-0.67 0.065,-0.588 0.065,-0.483C0.065,-0.361 0.151,-0.322 0.273,-0.278C0.339,-0.255 0.394,-0.229 0.394,-0.175C0.394,-0.118 0.348,-0.086 0.276,-0.086C0.233,-0.086 0.196,-0.097 0.172,-0.114C0.178,-0.126 0.181,-0.138 0.181,-0.154C0.181,-0.186 0.153,-0.219 0.109,-0.219C0.068,-0.219 0.04,-0.188 0.04,-0.141C0.04,-0.061 0.145,0.012 0.275,0.012Z" style="fill:white;fill-rule:nonzero;"/>
            </g>
            <g transform="matrix(100,0,0,100,202.965,636.114)">
                <path d="M0.037,-0L0.31,-0L0.31,-0.101L0.23,-0.101L0.23,-0.557L0.31,-0.557L0.31,-0.658L0.037,-0.658L0.037,-0.557L0.117,-0.557L0.117,-0.101L0.037,-0.101L0.037,-0Z" style="fill:white;fill-rule:nonzero;"/>
            </g>
            <g transform="matrix(100,0,0,100,237.665,636.114)">
                <path d="M0.032,-0L0.3,-0L0.3,-0.101L0.221,-0.101L0.234,-0.44L0.422,-0.11L0.437,-0.11L0.625,-0.44L0.638,-0.101L0.559,-0.101L0.559,-0L0.829,-0L0.829,-0.101L0.751,-0.101L0.73,-0.557L0.812,-0.557L0.812,-0.658L0.633,-0.658L0.431,-0.292L0.229,-0.658L0.049,-0.658L0.049,-0.557L0.131,-0.557L0.11,-0.101L0.032,-0.101L0.032,-0Z" style="fill:white;fill-rule:nonzero;"/>
            </g>
            <g transform="matrix(100,0,0,100,323.865,636.114)">
                <path d="M0.037,-0L0.307,-0L0.307,-0.101L0.225,-0.101L0.225,-0.219C0.239,-0.218 0.258,-0.218 0.289,-0.218C0.444,-0.218 0.551,-0.292 0.551,-0.443C0.551,-0.577 0.443,-0.658 0.302,-0.658L0.037,-0.658L0.037,-0.557L0.112,-0.557L0.112,-0.101L0.037,-0.101L0.037,-0ZM0.299,-0.317C0.253,-0.317 0.237,-0.318 0.225,-0.319L0.225,-0.557L0.296,-0.557C0.377,-0.557 0.434,-0.512 0.434,-0.443C0.434,-0.365 0.384,-0.317 0.299,-0.317Z" style="fill:white;fill-rule:nonzero;"/>
            </g>
            <g transform="matrix(100,0,0,100,381.965,636.114)">
                <path d="M0.037,-0L0.515,-0L0.515,-0.193L0.406,-0.193L0.406,-0.1L0.225,-0.1L0.225,-0.557L0.312,-0.557L0.312,-0.658L0.037,-0.658L0.037,-0.557L0.112,-0.557L0.112,-0.101L0.037,-0.101L0.037,-0Z" style="fill:white;fill-rule:nonzero;"/>
            </g>
            <g transform="matrix(100,0,0,100,436.765,636.114)">
                <path d="M0.037,-0L0.529,-0L0.529,-0.188L0.421,-0.188L0.421,-0.1L0.225,-0.1L0.225,-0.286L0.424,-0.286L0.424,-0.382L0.225,-0.382L0.225,-0.558L0.42,-0.558L0.42,-0.47L0.528,-0.47L0.528,-0.658L0.037,-0.658L0.037,-0.557L0.112,-0.557L0.112,-0.101L0.037,-0.101L0.037,-0Z" style="fill:white;fill-rule:nonzero;"/>
            </g>
        </g>
        <g transform="matrix(2.53896,0,0,2.53896,-233.099,-688.373)">
            <g transform="matrix(100,0,0,100,147.465,636.114)">
                <path d="M0.275,0.012C0.41,0.012 0.507,-0.059 0.507,-0.184C0.507,-0.306 0.418,-0.347 0.3,-0.389C0.234,-0.413 0.179,-0.437 0.179,-0.491C0.179,-0.539 0.217,-0.572 0.282,-0.572C0.323,-0.572 0.351,-0.563 0.369,-0.552C0.365,-0.544 0.362,-0.537 0.362,-0.521C0.362,-0.488 0.388,-0.454 0.434,-0.454C0.472,-0.454 0.501,-0.481 0.501,-0.528C0.501,-0.607 0.406,-0.67 0.283,-0.67C0.15,-0.67 0.065,-0.588 0.065,-0.483C0.065,-0.361 0.151,-0.322 0.273,-0.278C0.339,-0.255 0.394,-0.229 0.394,-0.175C0.394,-0.118 0.348,-0.086 0.276,-0.086C0.233,-0.086 0.196,-0.097 0.172,-0.114C0.178,-0.126 0.181,-0.138 0.181,-0.154C0.181,-0.186 0.153,-0.219 0.109,-0.219C0.068,-0.219 0.04,-0.188 0.04,-0.141C0.04,-0.061 0.145,0.012 0.275,0.012Z" style="fill:white;fill-rule:nonzero;"/>
            </g>
            <g transform="matrix(100,0,0,100,201.465,636.114)">
                <path d="M0.013,-0L0.266,-0L0.266,-0.1L0.186,-0.1L0.223,-0.208L0.469,-0.208L0.506,-0.1L0.43,-0.1L0.43,-0L0.683,-0L0.683,-0.101L0.626,-0.101L0.462,-0.558L0.534,-0.558L0.534,-0.658L0.162,-0.658L0.162,-0.558L0.234,-0.558L0.07,-0.101L0.013,-0.101L0.013,-0ZM0.254,-0.302L0.346,-0.561L0.438,-0.302L0.254,-0.302Z" style="fill:white;fill-rule:nonzero;"/>
            </g>
            <g transform="matrix(100,0,0,100,271.065,636.114)">
                <path d="M0.037,-0L0.515,-0L0.515,-0.193L0.406,-0.193L0.406,-0.1L0.225,-0.1L0.225,-0.557L0.312,-0.557L0.312,-0.658L0.037,-0.658L0.037,-0.557L0.112,-0.557L0.112,-0.101L0.037,-0.101L0.037,-0Z" style="fill:white;fill-rule:nonzero;"/>
            </g>
            <g transform="matrix(100,0,0,100,325.865,636.114)">
                <path d="M0.037,-0L0.529,-0L0.529,-0.188L0.421,-0.188L0.421,-0.1L0.225,-0.1L0.225,-0.286L0.424,-0.286L0.424,-0.382L0.225,-0.382L0.225,-0.558L0.42,-0.558L0.42,-0.47L0.528,-0.47L0.528,-0.658L0.037,-0.658L0.037,-0.557L0.112,-0.557L0.112,-0.101L0.037,-0.101L0.037,-0Z" style="fill:white;fill-rule:nonzero;"/>
            </g>
            <g transform="matrix(100,0,0,100,382.065,636.114)">
                <path d="M0.275,0.012C0.41,0.012 0.507,-0.059 0.507,-0.184C0.507,-0.306 0.418,-0.347 0.3,-0.389C0.234,-0.413 0.179,-0.437 0.179,-0.491C0.179,-0.539 0.217,-0.572 0.282,-0.572C0.323,-0.572 0.351,-0.563 0.369,-0.552C0.365,-0.544 0.362,-0.537 0.362,-0.521C0.362,-0.488 0.388,-0.454 0.434,-0.454C0.472,-0.454 0.501,-0.481 0.501,-0.528C0.501,-0.607 0.406,-0.67 0.283,-0.67C0.15,-0.67 0.065,-0.588 0.065,-0.483C0.065,-0.361 0.151,-0.322 0.273,-0.278C0.339,-0.255 0.394,-0.229 0.394,-0.175C0.394,-0.118 0.348,-0.086 0.276,-0.086C0.233,-0.086 0.196,-0.097 0.172,-0.114C0.178,-0.126 0.181,-0.138 0.181,-0.154C0.181,-0.186 0.153,-0.219 0.109,-0.219C0.068,-0.219 0.04,-0.188 0.04,-0.141C0.04,-0.061 0.145,0.012 0.275,0.012Z" style="fill:white;fill-rule:nonzero;"/>
            </g>
            <g transform="matrix(100,0,0,100,459.565,636.114)">
                <path d="M0.17,-0L0.447,-0L0.447,-0.101L0.365,-0.101L0.365,-0.56L0.487,-0.56L0.487,-0.456L0.594,-0.456L0.594,-0.658L0.023,-0.658L0.023,-0.456L0.13,-0.456L0.13,-0.56L0.252,-0.56L0.252,-0.101L0.17,-0.101L0.17,-0Z" style="fill:white;fill-rule:nonzero;"/>
            </g>
            <g transform="matrix(100,0,0,100,516.265,636.114)">
                <path d="M0.013,-0L0.266,-0L0.266,-0.1L0.186,-0.1L0.223,-0.208L0.469,-0.208L0.506,-0.1L0.43,-0.1L0.43,-0L0.683,-0L0.683,-0.101L0.626,-0.101L0.462,-0.558L0.534,-0.558L0.534,-0.658L0.162,-0.658L0.162,-0.558L0.234,-0.558L0.07,-0.101L0.013,-0.101L0.013,-0ZM0.254,-0.302L0.346,-0.561L0.438,-0.302L0.254,-0.302Z" style="fill:white;fill-rule:nonzero;"/>
            </g>
            <g transform="matrix(100,0,0,100,583.865,636.114)">
                <path d="M0.024,-0L0.294,-0L0.294,-0.099L0.219,-0.099L0.353,-0.278L0.481,-0.099L0.413,-0.099L0.413,-0L0.683,-0L0.683,-0.101L0.612,-0.101L0.422,-0.341L0.599,-0.557L0.674,-0.557L0.674,-0.658L0.399,-0.658L0.399,-0.559L0.476,-0.559L0.359,-0.401L0.243,-0.559L0.312,-0.559L0.312,-0.658L0.037,-0.658L0.037,-0.557L0.112,-0.557L0.29,-0.339L0.095,-0.101L0.024,-0.101L0.024,-0Z" style="fill:white;fill-rule:nonzero;"/>
            </g>
        </g>
        <g transform="matrix(3.44533,0,0,3.44533,-370.111,-959.395)">
            <g transform="matrix(100,0,0,100,147.465,636.114)">
                <path d="M0.037,-0L0.307,-0L0.307,-0.101L0.225,-0.101L0.225,-0.249C0.239,-0.248 0.258,-0.248 0.279,-0.248C0.292,-0.248 0.305,-0.249 0.319,-0.25L0.451,-0L0.603,-0L0.603,-0.101L0.528,-0.101L0.427,-0.28C0.499,-0.309 0.551,-0.374 0.551,-0.459C0.551,-0.593 0.443,-0.658 0.292,-0.658L0.037,-0.658L0.037,-0.557L0.112,-0.557L0.112,-0.101L0.037,-0.101L0.037,-0ZM0.289,-0.344C0.253,-0.344 0.237,-0.345 0.225,-0.346L0.225,-0.557L0.286,-0.557C0.377,-0.557 0.434,-0.524 0.434,-0.455C0.434,-0.386 0.374,-0.344 0.289,-0.344Z" style="fill:white;fill-rule:nonzero;"/>
            </g>
            <g transform="matrix(100,0,0,100,209.465,636.114)">
                <path d="M0.037,-0L0.529,-0L0.529,-0.188L0.421,-0.188L0.421,-0.1L0.225,-0.1L0.225,-0.286L0.424,-0.286L0.424,-0.382L0.225,-0.382L0.225,-0.558L0.42,-0.558L0.42,-0.47L0.528,-0.47L0.528,-0.658L0.037,-0.658L0.037,-0.557L0.112,-0.557L0.112,-0.101L0.037,-0.101L0.037,-0Z" style="fill:white;fill-rule:nonzero;"/>
            </g>
            <g transform="matrix(100,0,0,100,267.165,636.114)">
                <path d="M0.037,-0L0.307,-0L0.307,-0.101L0.225,-0.101L0.225,-0.219C0.239,-0.218 0.258,-0.218 0.289,-0.218C0.444,-0.218 0.551,-0.292 0.551,-0.443C0.551,-0.577 0.443,-0.658 0.302,-0.658L0.037,-0.658L0.037,-0.557L0.112,-0.557L0.112,-0.101L0.037,-0.101L0.037,-0ZM0.299,-0.317C0.253,-0.317 0.237,-0.318 0.225,-0.319L0.225,-0.557L0.296,-0.557C0.377,-0.557 0.434,-0.512 0.434,-0.443C0.434,-0.365 0.384,-0.317 0.299,-0.317Z" style="fill:white;fill-rule:nonzero;"/>
            </g>
            <g transform="matrix(100,0,0,100,325.265,636.114)">
                <path d="M0.381,0.012C0.581,0.012 0.721,-0.136 0.721,-0.329C0.721,-0.521 0.585,-0.67 0.386,-0.67C0.186,-0.67 0.046,-0.522 0.046,-0.329C0.046,-0.137 0.182,0.012 0.381,0.012ZM0.384,-0.093C0.256,-0.093 0.163,-0.192 0.163,-0.329C0.163,-0.467 0.256,-0.565 0.384,-0.565C0.511,-0.565 0.604,-0.466 0.604,-0.329C0.604,-0.191 0.511,-0.093 0.384,-0.093Z" style="fill:white;fill-rule:nonzero;"/>
            </g>
            <g transform="matrix(100,0,0,100,401.965,636.114)">
                <path d="M0.037,-0L0.307,-0L0.307,-0.101L0.225,-0.101L0.225,-0.249C0.239,-0.248 0.258,-0.248 0.279,-0.248C0.292,-0.248 0.305,-0.249 0.319,-0.25L0.451,-0L0.603,-0L0.603,-0.101L0.528,-0.101L0.427,-0.28C0.499,-0.309 0.551,-0.374 0.551,-0.459C0.551,-0.593 0.443,-0.658 0.292,-0.658L0.037,-0.658L0.037,-0.557L0.112,-0.557L0.112,-0.101L0.037,-0.101L0.037,-0ZM0.289,-0.344C0.253,-0.344 0.237,-0.345 0.225,-0.346L0.225,-0.557L0.286,-0.557C0.377,-0.557 0.434,-0.524 0.434,-0.455C0.434,-0.386 0.374,-0.344 0.289,-0.344Z" style="fill:white;fill-rule:nonzero;"/>
            </g>
            <g transform="matrix(100,0,0,100,460.965,636.114)">
                <path d="M0.17,-0L0.447,-0L0.447,-0.101L0.365,-0.101L0.365,-0.56L0.487,-0.56L0.487,-0.456L0.594,-0.456L0.594,-0.658L0.023,-0.658L0.023,-0.456L0.13,-0.456L0.13,-0.56L0.252,-0.56L0.252,-0.101L0.17,-0.101L0.17,-0Z" style="fill:white;fill-rule:nonzero;"/>
            </g>
        </g>
        <g transform="matrix(1.06179,0,0,1.06179,-4.81439,712.686)">
            <g transform="matrix(100,0,0,100,147.465,636.114)">
                <path d="M0.051,-0L0.12,-0L0.204,-0.365L0.314,-0.365L0.329,-0.426L0.218,-0.426L0.248,-0.556C0.259,-0.601 0.274,-0.634 0.294,-0.654C0.305,-0.665 0.321,-0.673 0.336,-0.676C0.338,-0.648 0.358,-0.629 0.385,-0.629C0.41,-0.629 0.433,-0.649 0.433,-0.678C0.433,-0.711 0.405,-0.737 0.355,-0.737C0.312,-0.737 0.272,-0.72 0.245,-0.693C0.216,-0.663 0.195,-0.627 0.181,-0.565L0.149,-0.426L0.074,-0.426L0.059,-0.365L0.135,-0.365L0.051,-0Z" style="fill:white;fill-rule:nonzero;"/>
            </g>
            <g transform="matrix(100,0,0,100,206.565,636.114)">
                <path d="M0.226,0.008C0.364,0.008 0.467,-0.115 0.467,-0.248C0.467,-0.348 0.399,-0.434 0.282,-0.434C0.144,-0.434 0.041,-0.31 0.041,-0.178C0.041,-0.077 0.109,0.008 0.226,0.008ZM0.229,-0.053C0.163,-0.053 0.112,-0.1 0.112,-0.177C0.112,-0.284 0.186,-0.373 0.279,-0.373C0.345,-0.373 0.396,-0.326 0.396,-0.248C0.396,-0.142 0.323,-0.053 0.229,-0.053Z" style="fill:white;fill-rule:nonzero;"/>
            </g>
            <g transform="matrix(100,0,0,100,287.365,636.114)">
                <path d="M0.044,-0L0.114,-0L0.162,-0.189C0.185,-0.285 0.252,-0.349 0.284,-0.365C0.289,-0.343 0.308,-0.325 0.335,-0.325C0.364,-0.325 0.389,-0.35 0.389,-0.38C0.389,-0.411 0.365,-0.433 0.331,-0.433C0.288,-0.433 0.24,-0.389 0.185,-0.308L0.213,-0.426L0.071,-0.426L0.056,-0.365L0.136,-0.365L0.044,-0Z" style="fill:white;fill-rule:nonzero;"/>
            </g>
            <g transform="matrix(100,0,0,100,406.465,636.114)">
                <path d="M0.214,0.009L0.254,0.009L0.515,-0.433L0.584,0.009L0.624,0.009L0.938,-0.592L1.003,-0.592L1.018,-0.658L0.796,-0.658L0.78,-0.592L0.86,-0.592L0.625,-0.127L0.56,-0.579L0.526,-0.579L0.268,-0.129L0.252,-0.592L0.334,-0.592L0.349,-0.658L0.126,-0.658L0.111,-0.592L0.181,-0.592L0.214,0.009Z" style="fill:white;fill-rule:nonzero;"/>
            </g>
            <g transform="matrix(100,0,0,100,524.765,636.114)">
                <path d="M0.226,0.008C0.364,0.008 0.467,-0.115 0.467,-0.248C0.467,-0.348 0.399,-0.434 0.282,-0.434C0.144,-0.434 0.041,-0.31 0.041,-0.178C0.041,-0.077 0.109,0.008 0.226,0.008ZM0.229,-0.053C0.163,-0.053 0.112,-0.1 0.112,-0.177C0.112,-0.284 0.186,-0.373 0.279,-0.373C0.345,-0.373 0.396,-0.326 0.396,-0.248C0.396,-0.142 0.323,-0.053 0.229,-0.053Z" style="fill:white;fill-rule:nonzero;"/>
            </g>
            <g transform="matrix(100,0,0,100,605.565,636.114)">
                <path d="M0.226,0.008C0.364,0.008 0.467,-0.115 0.467,-0.248C0.467,-0.348 0.399,-0.434 0.282,-0.434C0.144,-0.434 0.041,-0.31 0.041,-0.178C0.041,-0.077 0.109,0.008 0.226,0.008ZM0.229,-0.053C0.163,-0.053 0.112,-0.1 0.112,-0.177C0.112,-0.284 0.186,-0.373 0.279,-0.373C0.345,-0.373 0.396,-0.326 0.396,-0.248C0.396,-0.142 0.323,-0.053 0.229,-0.053Z" style="fill:white;fill-rule:nonzero;"/>
            </g>
            <g transform="matrix(100,0,0,100,686.365,636.114)">
                <path d="M0.354,0.012C0.451,0.012 0.537,-0.026 0.611,-0.102L0.567,-0.148C0.507,-0.089 0.439,-0.056 0.361,-0.056C0.234,-0.056 0.149,-0.141 0.149,-0.285C0.149,-0.441 0.271,-0.603 0.441,-0.603C0.532,-0.603 0.585,-0.564 0.596,-0.533C0.579,-0.523 0.567,-0.505 0.567,-0.486C0.567,-0.458 0.588,-0.436 0.62,-0.436C0.652,-0.436 0.68,-0.465 0.68,-0.509C0.68,-0.574 0.598,-0.67 0.444,-0.67C0.241,-0.67 0.072,-0.488 0.072,-0.278C0.072,-0.093 0.2,0.012 0.354,0.012Z" style="fill:white;fill-rule:nonzero;"/>
            </g>
            <g transform="matrix(100,0,0,100,782.365,636.114)">
                <path d="M0.226,0.008C0.364,0.008 0.467,-0.115 0.467,-0.248C0.467,-0.348 0.399,-0.434 0.282,-0.434C0.144,-0.434 0.041,-0.31 0.041,-0.178C0.041,-0.077 0.109,0.008 0.226,0.008ZM0.229,-0.053C0.163,-0.053 0.112,-0.1 0.112,-0.177C0.112,-0.284 0.186,-0.373 0.279,-0.373C0.345,-0.373 0.396,-0.326 0.396,-0.248C0.396,-0.142 0.323,-0.053 0.229,-0.053Z" style="fill:white;fill-rule:nonzero;"/>
            </g>
            <g transform="matrix(100,0,0,100,862.165,636.114)">
                <path d="M0.044,-0L0.114,-0L0.168,-0.215C0.193,-0.318 0.258,-0.373 0.312,-0.373C0.35,-0.373 0.375,-0.346 0.375,-0.31C0.375,-0.294 0.372,-0.277 0.367,-0.256L0.301,-0L0.371,-0L0.426,-0.214C0.453,-0.318 0.514,-0.373 0.569,-0.373C0.606,-0.373 0.631,-0.348 0.631,-0.309C0.631,-0.293 0.628,-0.277 0.623,-0.257L0.584,-0.12C0.579,-0.105 0.576,-0.085 0.576,-0.072C0.576,-0.026 0.608,0.007 0.66,0.007C0.71,0.007 0.745,-0.029 0.767,-0.098L0.732,-0.11C0.712,-0.06 0.694,-0.043 0.675,-0.043C0.658,-0.043 0.646,-0.055 0.646,-0.075C0.646,-0.083 0.649,-0.099 0.652,-0.112L0.692,-0.25C0.699,-0.273 0.703,-0.296 0.703,-0.317C0.703,-0.386 0.656,-0.433 0.592,-0.433C0.538,-0.433 0.484,-0.392 0.444,-0.326C0.441,-0.392 0.398,-0.433 0.334,-0.433C0.278,-0.433 0.226,-0.387 0.188,-0.325L0.213,-0.426L0.071,-0.426L0.056,-0.365L0.136,-0.365L0.044,-0Z" style="fill:white;fill-rule:nonzero;"/>
            </g>
            <g transform="matrix(100,0,0,100,971.265,636.114)">
                <path d="M0.044,-0L0.114,-0L0.168,-0.215C0.193,-0.318 0.258,-0.373 0.312,-0.373C0.35,-0.373 0.375,-0.346 0.375,-0.31C0.375,-0.294 0.372,-0.277 0.367,-0.256L0.301,-0L0.371,-0L0.426,-0.214C0.453,-0.318 0.514,-0.373 0.569,-0.373C0.606,-0.373 0.631,-0.348 0.631,-0.309C0.631,-0.293 0.628,-0.277 0.623,-0.257L0.584,-0.12C0.579,-0.105 0.576,-0.085 0.576,-0.072C0.576,-0.026 0.608,0.007 0.66,0.007C0.71,0.007 0.745,-0.029 0.767,-0.098L0.732,-0.11C0.712,-0.06 0.694,-0.043 0.675,-0.043C0.658,-0.043 0.646,-0.055 0.646,-0.075C0.646,-0.083 0.649,-0.099 0.652,-0.112L0.692,-0.25C0.699,-0.273 0.703,-0.296 0.703,-0.317C0.703,-0.386 0.656,-0.433 0.592,-0.433C0.538,-0.433 0.484,-0.392 0.444,-0.326C0.441,-0.392 0.398,-0.433 0.334,-0.433C0.278,-0.433 0.226,-0.387 0.188,-0.325L0.213,-0.426L0.071,-0.426L0.056,-0.365L0.136,-0.365L0.044,-0Z" style="fill:white;fill-rule:nonzero;"/>
            </g>
            <g transform="matrix(100,0,0,100,1080.37,636.114)">
                <path d="M0.423,-0.192C0.434,-0.223 0.439,-0.252 0.439,-0.278C0.439,-0.374 0.375,-0.434 0.276,-0.434C0.149,-0.434 0.04,-0.316 0.04,-0.172C0.04,-0.056 0.131,0.008 0.231,0.008C0.289,0.008 0.326,-0.001 0.371,-0.023L0.386,-0.091C0.331,-0.062 0.293,-0.052 0.245,-0.052C0.171,-0.052 0.109,-0.096 0.109,-0.171C0.109,-0.178 0.109,-0.185 0.11,-0.192L0.423,-0.192ZM0.273,-0.373C0.342,-0.373 0.373,-0.334 0.373,-0.288C0.373,-0.274 0.371,-0.259 0.366,-0.246L0.121,-0.246C0.146,-0.32 0.206,-0.373 0.273,-0.373Z" style="fill:white;fill-rule:nonzero;"/>
            </g>
            <g transform="matrix(100,0,0,100,1157.97,636.114)">
                <path d="M0.044,-0L0.114,-0L0.162,-0.189C0.185,-0.285 0.252,-0.349 0.284,-0.365C0.289,-0.343 0.308,-0.325 0.335,-0.325C0.364,-0.325 0.389,-0.35 0.389,-0.38C0.389,-0.411 0.365,-0.433 0.331,-0.433C0.288,-0.433 0.24,-0.389 0.185,-0.308L0.213,-0.426L0.071,-0.426L0.056,-0.365L0.136,-0.365L0.044,-0Z" style="fill:white;fill-rule:nonzero;"/>
            </g>
            <g transform="matrix(100,0,0,100,1224.17,636.114)">
                <path d="M0.233,0.008C0.289,0.008 0.339,-0.01 0.381,-0.041L0.383,-0.109C0.341,-0.073 0.29,-0.053 0.241,-0.053C0.162,-0.053 0.112,-0.104 0.112,-0.18C0.112,-0.289 0.195,-0.373 0.283,-0.373C0.322,-0.373 0.348,-0.361 0.363,-0.341C0.35,-0.333 0.343,-0.316 0.343,-0.305C0.343,-0.275 0.365,-0.26 0.386,-0.26C0.417,-0.26 0.439,-0.287 0.439,-0.32C0.439,-0.373 0.385,-0.434 0.285,-0.434C0.151,-0.434 0.041,-0.311 0.041,-0.176C0.041,-0.061 0.125,0.008 0.233,0.008Z" style="fill:white;fill-rule:nonzero;"/>
            </g>
            <g transform="matrix(100,0,0,100,1300.57,636.114)">
                <path d="M0.423,-0.192C0.434,-0.223 0.439,-0.252 0.439,-0.278C0.439,-0.374 0.375,-0.434 0.276,-0.434C0.149,-0.434 0.04,-0.316 0.04,-0.172C0.04,-0.056 0.131,0.008 0.231,0.008C0.289,0.008 0.326,-0.001 0.371,-0.023L0.386,-0.091C0.331,-0.062 0.293,-0.052 0.245,-0.052C0.171,-0.052 0.109,-0.096 0.109,-0.171C0.109,-0.178 0.109,-0.185 0.11,-0.192L0.423,-0.192ZM0.273,-0.373C0.342,-0.373 0.373,-0.334 0.373,-0.288C0.373,-0.274 0.371,-0.259 0.366,-0.246L0.121,-0.246C0.146,-0.32 0.206,-0.373 0.273,-0.373Z" style="fill:white;fill-rule:nonzero;"/>
            </g>
        </g>
    </g>
</svg>
